<?xml version="1.0" standalone="no"?>
<!DOCTYPE svg PUBLIC "-//W3C//DTD SVG 20010904//EN"
 "http://www.w3.org/TR/2001/REC-SVG-20010904/DTD/svg10.dtd">
<svg version="1.0" xmlns="http://www.w3.org/2000/svg"
 width="1024.000000pt" height="1024.000000pt" viewBox="0 0 1024.000000 1024.000000"
 preserveAspectRatio="xMidYMid meet">

<g transform="translate(0.000000,1024.000000) scale(0.100000,-0.100000)"
fill="#000000" stroke="none">
<path d="M0 5120 l0 -5120 5120 0 5120 0 0 5120 0 5120 -5120 0 -5120 0 0
-5120z m7014 3497 c168 -67 288 -199 331 -364 13 -50 15 -281 15 -1763 0
-1881 4 -1757 -63 -1884 -40 -78 -145 -183 -223 -224 -125 -65 -9 -62 -1959
-62 -1544 0 -1778 2 -1834 15 -179 43 -322 181 -388 375 -17 52 -18 133 -21
1725 -2 1126 1 1696 8 1750 28 217 191 397 406 449 50 12 330 14 1859 13
l1800 -2 69 -28z m-5084 -5017 l0 -80 -130 0 -130 0 0 -390 0 -390 -90 0 -90
0 0 390 0 390 -130 0 -130 0 0 80 0 80 350 0 350 0 0 -80z m642 47 c102 -50
148 -134 148 -266 -1 -105 -40 -187 -111 -233 l-37 -24 79 -175 c44 -95 82
-182 85 -192 5 -16 -2 -18 -91 -15 l-96 3 -77 172 -77 173 -72 0 -73 0 0 -175
0 -175 -95 0 -95 0 0 471 0 471 228 -4 c225 -3 227 -3 284 -31z m969 -424 c83
-252 154 -464 157 -470 3 -10 -19 -13 -92 -13 l-95 0 -34 108 -33 107 -164 0
-164 0 -34 -107 -33 -108 -90 0 c-89 0 -90 0 -83 23 47 148 199 609 246 744
l60 173 103 0 103 0 153 -457z m317 425 c35 -127 206 -677 210 -674 2 3 52
161 111 353 l108 348 91 3 92 3 -10 -23 c-5 -13 -64 -196 -130 -408 -67 -212
-130 -413 -141 -447 l-21 -63 -101 0 -102 0 -157 470 -156 470 98 0 99 0 9
-32z m1278 1 c-3 -17 -6 -53 -6 -80 l0 -49 -185 0 -185 0 0 -110 0 -110 170 0
170 0 0 -34 c0 -18 -3 -54 -6 -80 l-7 -46 -163 0 -164 0 0 -120 0 -120 190 0
190 0 0 -80 0 -80 -280 0 -280 0 0 470 0 470 281 0 282 0 -7 -31z m344 -359
l0 -390 190 0 190 0 0 -80 0 -80 -280 0 -280 0 -2 470 -3 470 93 0 92 0 0
-390z m1410 310 l0 -80 -130 0 -130 0 0 -390 0 -390 -90 0 -90 0 0 390 0 390
-130 0 -130 0 0 80 0 80 350 0 350 0 0 -80z m310 -390 l0 -470 -90 0 -90 0 0
470 0 470 90 0 90 0 0 -470z m494 227 c157 -428 147 -404 161 -376 7 13 59
158 116 321 l104 298 123 0 122 0 0 -470 0 -470 -85 0 -85 0 -1 343 c0 188 -3
335 -6 327 -72 -200 -226 -627 -230 -637 -4 -9 -26 -13 -72 -13 l-66 0 -118
323 -117 322 2 -333 3 -332 -87 0 -88 0 0 470 0 470 118 0 117 0 89 -243z
m1356 224 c0 -10 -3 -46 -6 -80 l-7 -61 -183 0 -184 0 0 -110 0 -110 171 0
171 0 -4 -80 -3 -80 -167 0 -168 0 0 -120 0 -120 190 0 190 0 0 -80 0 -80
-280 0 -280 0 0 470 0 470 280 0 c266 0 280 -1 280 -19z m-6285 -1452 c60 -17
119 -82 140 -154 46 -158 -25 -306 -162 -336 -153 -35 -283 75 -283 240 0 87
17 135 64 188 61 66 146 88 241 62z m2395 -11 c43 -22 86 -80 74 -100 -3 -4
-23 -8 -44 -8 -30 0 -40 4 -45 21 -8 23 -42 39 -86 39 -41 0 -68 -16 -80 -47
-14 -38 9 -67 68 -83 106 -27 141 -42 169 -71 25 -26 29 -38 29 -89 0 -48 -4
-63 -25 -85 -41 -44 -79 -59 -155 -59 -93 -1 -142 22 -172 83 -25 50 -20 61
32 61 23 0 34 -7 46 -29 45 -78 199 -57 199 28 0 40 -34 65 -120 86 -117 29
-165 74 -156 148 6 52 30 85 79 108 58 26 132 24 187 -3z m487 -3 c32 -19 63
-63 63 -89 0 -12 -10 -16 -36 -16 -27 0 -43 7 -64 30 -52 56 -159 32 -160 -36
0 -32 32 -54 107 -73 37 -10 83 -25 100 -35 77 -39 94 -137 37 -206 -53 -62
-201 -77 -276 -27 -42 28 -77 95 -57 108 22 14 79 11 79 -4 0 -8 12 -24 26
-38 21 -19 36 -24 81 -24 48 0 58 4 79 28 51 59 23 96 -97 131 -108 30 -125
39 -144 76 -41 79 -4 162 84 191 40 13 145 4 178 -16z m684 14 c44 -14 85 -53
94 -91 7 -27 6 -28 -30 -28 -28 0 -44 7 -65 30 -23 25 -36 30 -74 30 -55 0
-86 -25 -86 -70 0 -35 18 -45 139 -80 82 -24 115 -50 129 -104 23 -80 -29
-156 -119 -175 -63 -14 -79 -14 -135 0 -51 13 -98 55 -108 95 -8 31 5 44 46
44 20 0 31 -8 43 -29 18 -35 71 -56 122 -48 51 9 73 33 73 78 0 47 -18 60
-115 84 -86 21 -120 38 -142 71 -21 33 -21 105 1 139 36 55 140 79 227 54z
m-4331 -104 l0 -105 120 0 120 0 0 105 0 105 43 0 42 0 0 -245 0 -245 -42 0
-43 0 0 105 0 105 -120 0 -120 0 0 -105 0 -105 -37 0 -38 0 0 245 0 245 38 0
37 0 0 -105z m1230 -82 c40 -104 75 -183 77 -178 2 6 34 89 71 185 l68 175 52
3 52 3 0 -245 0 -246 -35 0 -35 0 0 177 c0 97 -2 174 -5 171 -3 -3 -34 -81
-69 -174 l-64 -169 -39 -3 -38 -3 -67 178 -67 178 -1 -177 0 -178 -40 0 -40 0
0 245 0 245 53 0 54 0 73 -187z m790 152 l0 -35 -115 0 -115 0 0 -70 0 -70
105 0 105 0 0 -35 0 -35 -105 0 -105 0 0 -70 0 -70 115 0 115 0 0 -35 0 -35
-161 0 c-143 0 -160 2 -155 16 3 9 6 119 6 245 l0 229 155 0 155 0 0 -35z
m608 8 c56 -160 154 -436 158 -448 5 -12 -3 -15 -40 -15 l-45 0 -19 63 -18 62
-94 0 -94 0 -20 -62 -20 -63 -43 0 c-24 0 -43 2 -43 3 0 3 131 379 165 475 3
7 23 12 54 12 45 0 50 -3 59 -27z m1312 -218 l0 -245 -40 0 -40 0 0 245 0 245
40 0 40 0 0 -245z m980 210 l0 -35 -75 0 -75 0 0 -210 0 -210 -40 0 -40 0 0
210 0 210 -75 0 -75 0 0 35 0 35 190 0 190 0 0 -35z m389 -197 c46 -128 86
-239 88 -245 4 -9 -8 -13 -39 -13 l-44 0 -20 63 -20 62 -94 0 -94 0 -20 -62
-20 -63 -43 0 c-24 0 -43 2 -43 4 0 3 143 413 165 474 3 7 23 12 53 12 l48 0
83 -232z m411 50 l120 -183 0 183 0 182 40 0 40 0 0 -245 0 -245 -44 0 -44 0
-118 182 -119 182 -3 -182 -2 -182 -38 0 -37 0 0 245 0 245 43 0 43 0 119
-182z m690 147 l0 -35 -75 0 -75 0 0 -210 0 -210 -40 0 -40 0 0 210 0 210 -75
0 -75 0 0 35 0 35 190 0 190 0 0 -35z"/>
<path d="M3316 8444 c-101 -31 -188 -112 -228 -213 l-23 -56 -3 -1367 c-1
-753 0 -1368 4 -1368 9 0 1318 571 1326 579 4 4 -121 164 -278 356 -290 355
-527 649 -578 718 l-28 37 863 -2 863 -3 43 -95 42 -95 -700 -5 -700 -5 332
-405 c182 -223 334 -406 339 -408 4 -1 227 92 495 208 268 116 489 209 490
208 2 -2 21 -40 43 -84 l41 -82 -257 -112 c-141 -62 -350 -153 -464 -202 -115
-50 -208 -95 -208 -99 0 -6 959 -1183 1133 -1391 l40 -48 471 0 c520 0 547 3
638 61 67 43 121 121 146 211 l10 37 -546 667 c-301 367 -546 670 -545 673 2
7 154 71 169 71 11 0 58 -55 603 -720 156 -190 292 -354 302 -365 19 -19 19
-1 19 878 l0 897 -265 0 c-146 0 -265 2 -265 5 0 3 20 46 45 95 l45 90 220 0
221 0 -3 543 -3 542 -26 55 c-48 102 -118 164 -219 194 -48 14 -235 16 -1804
15 -1525 0 -1757 -2 -1800 -15z m2806 -305 c29 -6 91 -29 138 -51 146 -70 268
-210 320 -368 42 -130 34 -308 -20 -435 -24 -57 -487 -884 -509 -909 -24 -28
-56 -37 -90 -25 -26 9 -49 45 -162 247 -73 130 -186 333 -252 450 -148 263
-170 325 -171 477 0 79 5 127 18 169 66 219 234 385 446 440 66 18 209 20 282
5z"/>
<path d="M5923 7870 c-101 -21 -195 -96 -239 -193 -25 -54 -29 -74 -29 -152 0
-77 4 -98 27 -147 32 -69 96 -135 163 -168 42 -21 64 -25 145 -25 84 0 102 3
152 28 67 33 121 90 157 166 22 48 26 69 26 151 0 89 -3 99 -34 158 -19 34
-52 79 -74 98 -77 70 -197 104 -294 84z"/>
<path d="M4305 5771 c-121 -54 -451 -198 -734 -321 l-513 -224 4 -215 c6 -265
16 -300 112 -397 108 -108 -12 -99 1314 -102 717 -1 1153 1 1150 7 -1 5 -127
159 -278 343 -614 745 -832 1008 -833 1007 -1 -1 -101 -45 -222 -98z"/>
<path d="M2240 3385 l0 -145 70 0 c101 0 162 16 196 51 23 24 29 40 32 92 4
57 1 66 -23 95 -33 40 -77 52 -187 52 l-88 0 0 -145z"/>
<path d="M3222 3297 c-29 -100 -53 -184 -52 -187 0 -3 51 -4 113 -2 l114 3
-27 82 c-15 45 -39 125 -55 177 -16 52 -31 98 -34 102 -3 4 -30 -75 -59 -175z"/>
<path d="M2634 2140 c-58 -23 -100 -118 -90 -203 11 -95 65 -152 146 -152 91
0 145 69 144 186 0 76 -21 121 -74 156 -34 24 -87 29 -126 13z"/>
<path d="M4532 2022 c-18 -54 -32 -101 -32 -105 0 -4 32 -7 71 -7 64 0 70 2
64 18 -4 9 -20 55 -36 101 -16 46 -30 86 -32 87 -2 2 -17 -41 -35 -94z"/>
<path d="M7141 2018 c-17 -51 -31 -96 -31 -101 0 -4 31 -7 70 -7 l70 0 -35 97
c-20 53 -37 99 -39 101 -2 2 -18 -39 -35 -90z"/>
</g>
</svg>
